<?xml version="1.0" encoding="UTF-8"?><svg id="Layer_2" xmlns="http://www.w3.org/2000/svg" viewBox="0 0 734.82 303.17"><defs><style>.cls-1{fill:#fff;}.cls-2{fill:#c7c7c7;}.cls-3{fill:#fffeff;}</style></defs><g id="Layer_1-2"><g><path class="cls-1" d="m23.45,285.75l10.79,16.72h-7.87l-10.34-16.2H7.65v16.2H.82v-34.86c0-5.2,2.21-7.42,7.41-7.42h10.28c10.08,0,14.05,4.55,14.05,13.07,0,6.96-2.6,11.12-9.1,12.49Zm-13.27-19.12c-1.69,0-2.54.85-2.54,2.47v10.73h10.86c5.46,0,7.22-2.15,7.22-6.57s-1.75-6.63-7.22-6.63h-8.32Z"/><path class="cls-1" d="m80,302.46h-6.89l-3.19-11.7h-18.27l-3.19,11.7h-6.89l8.78-31.93c1.17-4.23,2.41-7.09,3.77-8.65,1.3-1.5,3.51-2.28,6.7-2.28s5.4.78,6.7,2.28c1.3,1.56,2.54,4.42,3.71,8.65l8.78,31.93Zm-26.73-17.89h15.02l-3.84-14.18c-1.04-3.83-1.56-4.68-3.64-4.68s-2.66.85-3.7,4.68l-3.84,14.18Z"/><path class="cls-1" d="m88.85,302.46v-42.27h6.83v42.27h-6.83Z"/><path class="cls-1" d="m106.89,260.19h6.83v33.36c0,1.63.85,2.47,2.54,2.47h16.77v6.44h-18.73c-5.2,0-7.41-2.21-7.41-7.42v-34.86h0Z"/><path class="cls-1" d="m194.13,260.19l-4.68,32.77c-1.04,7.35-3.32,10.08-9.5,10.08-2.92,0-5.01-.78-6.24-2.28-1.24-1.5-2.21-4.1-2.73-7.8l-3.51-24.26c-.32-2.28-.52-2.67-1.56-2.67-.98,0-1.24.52-1.56,2.67l-3.45,24.26c-.52,3.7-1.36,6.31-2.6,7.8-1.23,1.5-3.38,2.28-6.37,2.28-6.18,0-8.46-2.73-9.5-10.08l-4.68-32.77h6.9l4.55,32.77c.46,3.19,1.1,3.97,2.73,3.97s2.27-.85,2.73-3.97l3.77-24.77c.91-6.05,2.6-8,7.48-8s6.5,1.82,7.48,8l3.84,24.77c.46,3.12,1.17,3.97,2.73,3.97s2.28-.85,2.73-3.97l4.55-32.77h6.89Z"/><path class="cls-1" d="m236.48,302.46h-6.89l-3.19-11.7h-18.27l-3.19,11.7h-6.9l8.78-31.93c1.17-4.23,2.4-7.09,3.77-8.65,1.3-1.5,3.51-2.28,6.7-2.28s5.4.78,6.7,2.28c1.3,1.56,2.54,4.42,3.7,8.65l8.78,31.93Zm-26.73-17.89h15.02l-3.84-14.18c-1.04-3.83-1.56-4.68-3.64-4.68s-2.67.85-3.7,4.68l-3.84,14.18Z"/><path class="cls-1" d="m252.95,302.46v-16.91c-1.3-.46-2.28-1.04-2.99-1.76-.72-.72-1.69-2.21-2.86-4.42l-10.34-19.18h7.67l7.61,15.02c1.04,2.02,1.82,3.25,2.34,3.77.46.59,1.17.85,2.02.85s1.56-.26,2.02-.85c.45-.52,1.23-1.75,2.27-3.77l7.68-15.02h7.67l-10.4,19.18c-1.23,2.21-2.15,3.71-2.86,4.42-.71.72-1.69,1.3-2.93,1.76v16.91h-6.89Z"/><path class="cls-1" d="m318.88,260.19c9.3,0,13.92,3.77,13.92,11.25,0,4.75-1.63,7.42-6.05,8.98v.26c5.53,1.76,7.35,4.81,7.35,9.82,0,8-5.07,11.97-15.22,11.97h-8.58c-5.2,0-7.41-2.21-7.41-7.42v-27.44c0-5.2,2.21-7.42,7.41-7.42h8.58Zm-6.63,6.44c-1.69,0-2.54.85-2.54,2.47v8.78h9.17c5.14,0,6.96-2.08,6.96-5.72s-1.82-5.53-6.96-5.53h-6.63Zm-2.54,17.17v9.75c0,1.63.84,2.47,2.54,2.47h6.24c6.57,0,8.65-1.56,8.65-5.98,0-4.16-1.95-6.24-7.42-6.24h-10.01Z"/><path class="cls-1" d="m350.4,283.86v9.69c0,1.63.85,2.47,2.54,2.47h19.38v6.44h-21.33c-5.2,0-7.42-2.21-7.42-7.42v-27.44c0-5.2,2.21-7.42,7.42-7.42h21.33v6.44h-19.38c-1.69,0-2.54.85-2.54,2.47v8.32h19.32v6.44h-19.32Z"/><path class="cls-1" d="m381.74,302.46v-34.34c0-6.24,2.28-8.58,7.67-8.58,4.62,0,6.44,1.69,7.93,6.89l8.2,29.07c.45,1.5.84,1.82,1.69,1.82s1.3-.72,1.3-2.14v-34.99h6.63v34.34c0,6.31-2.21,8.58-7.41,8.58-4.75,0-6.7-1.82-8.26-7.22l-8.06-28.42c-.52-1.76-.78-2.14-1.75-2.14-.85,0-1.3.78-1.3,2.28v34.86h-6.64Z"/><path class="cls-1" d="m433.06,283.86v9.69c0,1.63.85,2.47,2.54,2.47h19.38v6.44h-21.33c-5.2,0-7.42-2.21-7.42-7.42v-27.44c0-5.2,2.21-7.42,7.42-7.42h21.33v6.44h-19.38c-1.69,0-2.54.85-2.54,2.47v8.32h19.32v6.44h-19.32Z"/><path class="cls-1" d="m471.22,284.32v18.14h-6.83v-34.86c0-5.2,2.21-7.42,7.41-7.42h20.42v6.44h-18.47c-1.69,0-2.54.85-2.54,2.47v8.78h18.4v6.44h-18.4Z"/><path class="cls-1" d="m501.55,302.46v-42.27h6.83v42.27h-6.83Z"/><path class="cls-1" d="m517.35,266.63v-6.44h32.97v6.44h-13.01v35.83h-6.89v-35.83h-13.08Z"/><path class="cls-1" d="m584.97,284.32v18.14h-6.83v-34.86c0-5.2,2.21-7.42,7.41-7.42h20.42v6.44h-18.47c-1.69,0-2.54.85-2.54,2.47v8.78h18.4v6.44h-18.4Z"/><path class="cls-1" d="m614.77,260.19h6.83v28.16c0,6.05,3.32,8.39,9.62,8.39s9.62-2.34,9.62-8.39v-28.16h6.89v28.16c0,10.21-6.17,14.83-16.52,14.83-10.99,0-16.45-4.94-16.45-14.83v-28.16h0Z"/><path class="cls-1" d="m658.4,302.46v-34.34c0-6.24,2.28-8.58,7.67-8.58,4.62,0,6.44,1.69,7.94,6.89l8.19,29.07c.46,1.5.85,1.82,1.69,1.82s1.3-.72,1.3-2.14v-34.99h6.63v34.34c0,6.31-2.21,8.58-7.41,8.58-4.75,0-6.7-1.82-8.26-7.22l-8.06-28.42c-.52-1.76-.78-2.14-1.76-2.14-.85,0-1.3.78-1.3,2.28v34.86h-6.63Z"/><path class="cls-1" d="m702.89,267.61c0-5.2,2.21-7.42,7.41-7.42h5.4c6.83,0,11.77,1.17,14.7,3.58s4.42,6.76,4.42,13.07v8.98c0,11.9-5.79,16.65-19.12,16.65h-5.4c-5.2,0-7.41-2.21-7.41-7.42v-27.44Zm12.81,28.42c4.68,0,7.87-.72,9.56-2.21,1.69-1.49,2.53-4.16,2.53-7.99v-8.98c0-3.84-.84-6.5-2.53-8-1.69-1.49-4.88-2.21-9.56-2.21h-3.45c-1.69,0-2.54.85-2.54,2.47v24.45c0,1.63.84,2.47,2.54,2.47h3.45Z"/></g><g><path class="cls-3" d="m187.95,10.22c31.9,4.13,63.7,16.77,63.7,35.7v79.79c11.81-17.04,19.57-34.39,19.57-50.55,0-67.31-68.27-92.18-117.98-63.26,9.47-2.66,21.28-3.39,34.71-1.68Z"/><path class="cls-1" d="m219.72,163.03l-65.71-14.31c-.18,0-.35.03-.49.07-1.07.27-1.88.8-1.88.8l-13.98,8.88s-1.25.53-1.18,1.35c.07.81,2.09,1.09,2.09,1.09l66.81,15.77c4.82-4.39,9.63-8.95,14.34-13.64Z"/><path class="cls-1" d="m158.12,108.25c0,5.55-4.34,9.45-9.67,8.71-5.31-.73-9.61-5.8-9.61-11.31s4.29-9.42,9.61-8.73c5.34.7,9.67,5.77,9.67,11.32Z"/><path class="cls-1" d="m215.04,118.81c0,5.65,4.33,10.84,9.68,11.59,5.38.75,9.75-3.25,9.75-8.94s-4.37-10.89-9.75-11.6c-5.35-.71-9.68,3.3-9.68,8.95Z"/><path class="cls-1" d="m187.99,28.26c-26.06-3.41-46.65,1.71-48.99,13.85-3.63,18.84.13,41.7,48.96,48.48,49.68,6.91,49.28-15.95,49.67-35.32.24-11.77-23.39-23.58-49.64-27.01Z"/><path class="cls-2" d="m237.63,55.27c.15-7.58-9.59-15.17-23.56-20.53-14.55.58-49.56,20.6-50.34,49.98,6.47,2.49,14.43,4.51,24.23,5.87,49.68,6.91,49.28-15.95,49.67-35.32Z"/><path class="cls-1" d="m135.61,143.68c-.85-.81-1.98-1.93-3.33-3.39-2.57-2.78-8.5-14.86-8.5-34.57,0,0,1.48-56.76,5.68-73.5.79-3.15,2.26-6.05,4.32-8.64C84.33-22.04,0,.34,0,75.15c0,35.03,36.46,75.65,71.57,106.65l64.04-37.17.63-.37c-.18-.17-.4-.37-.63-.58Z"/><g><path class="cls-1" d="m135.61,174.01l-15.64-3.86s-.64-.08-1.2,0c-.56.09-1.24.45-1.24.45l-14.28,8.08s-.8.42-.53,1.06c.2.48,1.13.59,1.13.59l31.77,8.59,42,11.36c4.79-3.82,9.77-7.92,14.85-12.24l-56.85-14.03Z"/><path class="cls-1" d="m84.86,193.16c27.36,22.66,50.75,37.91,50.75,37.91,0,0,10.37-6.76,25.36-17.95l-25.36-6.65-50.75-13.31Z"/></g></g><g><path class="cls-1" d="m409.18,138.18l46.14,69.35h-43.59l-43.59-66.52h-25.76v66.52h-37.93V57.51c0-23.77,10.19-33.96,33.97-33.96h46.42c41.61,0,62.55,19.53,62.55,58.88,0,30.57-12.74,49.25-38.21,55.76Zm-58.31-79.26c-5.66,0-8.49,2.83-8.49,8.49v38.21h42.46c16.41,0,24.62-7.65,24.62-23.21s-6.8-23.49-24.62-23.49h-33.97Z"/><path class="cls-1" d="m534.21,23.55c41.89,0,60.29,18.96,60.29,49.54,0,17.55-7.36,30.57-22.08,39.06,20.66,10.19,27.74,22.93,27.74,42.46,0,35.38-20.94,52.93-63.11,52.93h-43.59c-23.78,0-33.97-10.19-33.97-33.97V57.51c0-23.77,10.19-33.96,33.97-33.96h40.76Zm-28.31,35.38c-5.67,0-8.49,2.83-8.49,8.49v29.72h36.8c14.43,0,21.79-6.51,21.79-19.53s-7.36-18.68-21.79-18.68h-28.3Zm-8.49,70.76v33.97c0,5.65,2.83,8.49,8.49,8.49h31.14c16.41,0,24.62-6.79,24.62-20.66s-8.21-21.79-24.62-21.79h-39.63Z"/><path class="cls-3" d="m646.77,133.93v73.6h-37.93V57.51c0-23.77,10.19-33.96,33.96-33.96h92v35.38h-79.54c-5.66,0-8.49,2.83-8.49,8.49v31.13h76.71v35.38h-76.71Z"/></g></g></svg>