<?xml version="1.0" encoding="utf-8"?>
<!-- Generator: Adobe Illustrator 15.1.0, SVG Export Plug-In . SVG Version: 6.00 Build 0)  -->
<!DOCTYPE svg PUBLIC "-//W3C//DTD SVG 1.1//EN" "http://www.w3.org/Graphics/SVG/1.1/DTD/svg11.dtd">
<svg version="1.1" id="Layer_1" xmlns="http://www.w3.org/2000/svg" xmlns:xlink="http://www.w3.org/1999/xlink" x="0px" y="0px"
	 width="400px" height="400px" viewBox="0 0 400 400" enable-background="new 0 0 400 400" xml:space="preserve">
<g>
	<path fill="#640160" d="M256.871,85.557c34.668,4.488,69.219,18.225,69.219,38.787v86.699
		c12.828-18.521,21.268-37.371,21.268-54.93c0-73.139-74.188-100.158-128.199-68.732C229.447,84.49,242.279,83.701,256.871,85.557z"
		/>
	<path fill="#254690" d="M291.389,251.607l-71.398-15.555c-0.195,0.01-0.377,0.035-0.529,0.072c-1.17,0.293-2.045,0.875-2.045,0.875
		l-15.189,9.645c0,0-1.354,0.574-1.281,1.463c0.074,0.887,2.268,1.188,2.268,1.188l72.596,17.127
		C281.053,261.65,286.277,256.697,291.389,251.607z"/>
	<path fill="#254690" d="M224.453,192.078c0,6.029-4.713,10.268-10.51,9.467c-5.771-0.797-10.438-6.299-10.438-12.291
		c0-5.994,4.666-10.24,10.438-9.48C219.74,180.535,224.453,186.049,224.453,192.078z"/>
	<path fill="#254690" d="M286.307,203.551c0,6.139,4.701,11.779,10.52,12.596c5.842,0.816,10.59-3.533,10.59-9.717
		s-4.748-11.834-10.59-12.605C291.008,193.055,286.307,197.412,286.307,203.551z"/>
	<path fill="#254690" d="M256.918,105.158c-28.318-3.705-50.691,1.855-53.234,15.049c-3.945,20.471,0.143,45.309,53.199,52.682
		c53.977,7.506,53.543-17.336,53.971-38.381C311.115,121.719,285.434,108.881,256.918,105.158z"/>
	<path fill="#2D74CD" d="M310.854,134.508c0.168-8.232-10.424-16.484-25.598-22.312c-15.811,0.629-53.85,22.381-54.701,54.312
		c7.035,2.711,15.68,4.9,26.328,6.381C310.859,180.395,310.426,155.553,310.854,134.508z"/>
	<path fill="#44946C" d="M200.002,230.58c-0.93-0.877-2.154-2.098-3.619-3.684c-2.789-3.018-9.236-16.146-9.236-37.566
		c0,0,1.604-61.674,6.174-79.861c0.857-3.426,2.449-6.57,4.691-9.389C144.275,50.51,52.643,74.826,52.643,156.113
		c0,38.066,39.621,82.205,77.775,115.891l69.584-40.387l0.688-0.4C200.488,231.035,200.252,230.812,200.002,230.58z"/>
	<g>
		<path fill="#254690" d="M200.002,263.529l-17-4.193c0,0-0.697-0.092-1.307,0c-0.609,0.096-1.354,0.486-1.354,0.486l-15.514,8.773
			c0,0-0.867,0.461-0.574,1.154c0.219,0.52,1.227,0.641,1.227,0.641l34.521,9.338l45.641,12.346
			c5.201-4.154,10.621-8.604,16.135-13.301L200.002,263.529z"/>
		<path fill="#254690" d="M144.857,284.346c29.725,24.627,55.145,41.197,55.145,41.197s11.266-7.346,27.559-19.51l-27.559-7.23
			L144.857,284.346z"/>
	</g>
</g>
</svg>
